<?xml version="1.0" encoding="UTF-8"?>
<svg width="658px" height="66px" viewBox="0 0 658 66" version="1.1" xmlns="http://www.w3.org/2000/svg" xmlns:xlink="http://www.w3.org/1999/xlink">
    <!-- Generator: Sketch 47.1 (45422) - http://www.bohemiancoding.com/sketch -->
    <title>HAINSBRAIN</title>
    <desc>Created with Sketch.</desc>
    <defs></defs>
    <g id="Page-1" stroke="none" stroke-width="1" fill="none" fill-rule="evenodd">
        <g id="Artboard-3" transform="translate(-519.000000, -1688.000000)" fill="#FFFFFF">
            <g id="Group-2" transform="translate(303.000000, 1297.000000)">
                <g id="Group" transform="translate(94.000000, 293.000000)">
                    <path d="M122,162.066406 L122,99.0742188 L134.71875,99.0742188 L134.71875,123.867188 L159.640625,123.867188 L159.640625,99.0742188 L172.359375,99.0742188 L172.359375,162.066406 L159.640625,162.066406 L159.640625,134.523438 L134.71875,134.523438 L134.71875,162.066406 L122,162.066406 Z M255.5125,162.066406 L241.676562,162.066406 L205.797656,162.066406 L192.305469,162.066406 L216.840625,99.0742188 L230.289844,99.0742188 L255.5125,162.066406 Z M241.631359,162.06953 L223.414844,113.769531 L205.802058,162.06953 L241.631359,162.06953 Z M275.071875,162.066406 L275.071875,99.0742188 L287.790625,99.0742188 L287.790625,162.066406 L275.071875,162.066406 Z M313.236718,162.066406 L313.236718,99.0742188 L325.611718,99.0742188 L351.392968,141.140625 L351.392968,99.0742188 L363.209374,99.0742188 L363.209374,162.066406 L350.447656,162.066406 L325.053124,120.988281 L325.053124,162.066406 L313.236718,162.066406 Z M386.635937,141.570312 L399.010937,140.367188 C399.755732,144.520854 401.266785,147.571605 403.54414,149.519531 C405.821495,151.467458 408.89373,152.441406 412.760937,152.441406 C416.857311,152.441406 419.943869,151.574878 422.020702,149.841797 C424.097536,148.108715 425.135937,146.082043 425.135937,143.761719 C425.135937,142.272128 424.699092,141.004563 423.82539,139.958984 C422.951688,138.913406 421.426312,138.00391 419.249218,137.230469 C417.759627,136.714841 414.36513,135.798184 409.065624,134.480469 C402.247882,132.790356 397.464075,130.713554 394.714062,128.25 C390.846855,124.783837 388.91328,120.558619 388.91328,115.574219 C388.91328,112.365869 389.822777,109.365248 391.641796,106.572266 C393.460816,103.779283 396.081883,101.652351 399.505077,100.191406 C402.928272,98.7304614 407.060392,98 411.901562,98 C419.807851,98 425.758964,99.7330556 429.755077,103.199219 C433.751191,106.665382 435.849477,111.291638 436.049999,117.078125 L423.331249,117.636719 C422.786976,114.399723 421.61967,112.072273 419.829296,110.654297 C418.038923,109.236321 415.353403,108.527344 411.772655,108.527344 C408.077325,108.527344 405.184124,109.286451 403.092968,110.804688 C401.746607,111.778651 401.073437,113.082023 401.073437,114.714844 C401.073437,116.204435 401.703639,117.479161 402.964062,118.539062 C404.568236,119.885423 408.464031,121.289055 414.651562,122.75 C420.839093,124.210945 425.415219,125.721997 428.380077,127.283203 C431.344936,128.844409 433.665225,130.978502 435.341015,133.685547 C437.016804,136.392592 437.854687,139.736959 437.854687,143.71875 C437.854687,147.328143 436.852093,150.708318 434.846874,153.859375 C432.841656,157.010432 430.005747,159.352206 426.339062,160.884766 C422.672377,162.417325 418.103412,163.183594 412.63203,163.183594 C404.668449,163.183594 398.552625,161.343117 394.284374,157.662109 C390.016124,153.981101 387.46667,148.617223 386.635937,141.570312 Z M461.796874,99.0742188 L486.976562,99.0742188 C491.960961,99.0742188 495.677721,99.281899 498.126952,99.6972656 C500.576183,100.112632 502.767568,100.97916 504.701171,102.296875 C506.634774,103.61459 508.246086,105.36913 509.535155,107.560547 C510.824224,109.751964 511.468749,112.20832 511.468749,114.929688 C511.468749,117.880223 510.673835,120.587227 509.083983,123.050781 C507.494132,125.514335 505.338554,127.361973 502.617187,128.59375 C506.455747,129.710943 509.406239,131.615872 511.468749,134.308594 C513.531259,137.001316 514.562499,140.166648 514.562499,143.804688 C514.562499,146.669285 513.89649,149.455065 512.564452,152.162109 C511.232414,154.869154 509.413422,157.031893 507.107421,158.650391 C504.80142,160.268888 501.958349,161.264321 498.578124,161.636719 C496.458322,161.865887 491.345092,162.009114 483.23828,162.066406 L461.796874,162.066406 L461.796874,99.0742188 Z M474.515624,109.558594 L474.515624,124.125 L482.851562,124.125 C487.807315,124.125 490.886712,124.053386 492.089843,123.910156 C494.266937,123.652342 495.978508,122.900397 497.224608,121.654297 C498.470708,120.408197 499.093749,118.768239 499.093749,116.734375 C499.093749,114.786449 498.556645,113.203782 497.482421,111.986328 C496.408197,110.768874 494.811208,110.031251 492.691405,109.773438 C491.430982,109.630208 487.807321,109.558594 481.820312,109.558594 L474.515624,109.558594 Z M474.515624,134.609375 L474.515624,151.453125 L486.289062,151.453125 C490.872418,151.453125 493.779941,151.32422 495.011718,151.066406 C496.902352,150.722655 498.44205,149.884772 499.630858,148.552734 C500.819666,147.220696 501.414062,145.437511 501.414062,143.203125 C501.414062,141.312491 500.955733,139.70834 500.039062,138.390625 C499.12239,137.07291 497.797534,136.113284 496.064452,135.511719 C494.331371,134.910153 490.571643,134.609375 484.785155,134.609375 L474.515624,134.609375 Z M538.547655,162.066406 L538.547655,99.0742188 L565.317186,99.0742188 C572.048991,99.0742188 576.940218,99.6399683 579.991014,100.771484 C583.041811,101.903 585.483844,103.91535 587.317186,106.808594 C589.150529,109.701837 590.067186,113.010398 590.067186,116.734375 C590.067186,121.460961 588.677877,125.363917 585.899218,128.443359 C583.120558,131.522802 578.966954,133.463538 573.43828,134.265625 C576.188294,135.8698 578.458453,137.631501 580.248827,139.550781 C582.039201,141.470062 584.452588,144.878882 587.489061,149.777344 L595.180468,162.066406 L579.96953,162.066406 L570.774218,148.359375 C567.508576,143.460913 565.274224,140.374355 564.071093,139.099609 C562.867962,137.824863 561.593235,136.951174 560.246874,136.478516 C558.900513,136.005857 556.76642,135.769531 553.84453,135.769531 L551.266405,135.769531 L551.266405,162.066406 L538.547655,162.066406 Z M551.266405,125.714844 L560.676561,125.714844 C566.778154,125.714844 570.588012,125.457034 572.106249,124.941406 C573.624486,124.425779 574.813276,123.537767 575.672655,122.277344 C576.532034,121.016921 576.961718,119.441416 576.961718,117.550781 C576.961718,115.430979 576.395968,113.719408 575.264452,112.416016 C574.132936,111.112624 572.535947,110.289064 570.473436,109.945312 C569.442181,109.802083 566.348462,109.730469 561.192186,109.730469 L551.266405,109.730469 L551.266405,125.714844 Z M672.060155,162.066406 L658.224217,162.066406 L622.345311,162.066406 L608.853124,162.066406 L633.38828,99.0742188 L646.837499,99.0742188 L672.060155,162.066406 Z M658.205229,162.071255 L639.962499,113.769531 L622.339901,162.071255 L658.205229,162.071255 Z M691.61953,162.066406 L691.61953,99.0742188 L704.33828,99.0742188 L704.33828,162.066406 L691.61953,162.066406 Z M729.784373,162.066406 L729.784373,99.0742188 L742.159373,99.0742188 L767.940623,141.140625 L767.940623,99.0742188 L779.75703,99.0742188 L779.75703,162.066406 L766.995311,162.066406 L741.60078,120.988281 L741.60078,162.066406 L729.784373,162.066406 Z" id="HAINSBRAIN"></path>
                </g>
            </g>
        </g>
    </g>
</svg>